<?xml version="1.0" encoding="utf-8"?>
<!-- Generator: Adobe Illustrator 22.1.0, SVG Export Plug-In . SVG Version: 6.00 Build 0)  -->
<svg version="1.1" id="Layer_1" xmlns="http://www.w3.org/2000/svg" xmlns:xlink="http://www.w3.org/1999/xlink" x="0px" y="0px"
	 viewBox="0 0 581 356" style="enable-background:new 0 0 581 356;" xml:space="preserve">
<style type="text/css">
	.st0{fill:#606060;}
	.st1{fill:url(#SVGID_1_);}
	.st2{fill:url(#SVGID_2_);}
	.st3{filter:url(#Adobe_OpacityMaskFilter);}
	.st4{fill:#FFFFFF;}
	.st5{fill:#CCCCCC;}
	.st6{fill:#A62D87;}
	.st7{fill:url(#SVGID_4_);}
	.st8{filter:url(#Adobe_OpacityMaskFilter_1_);}
	.st9{fill:#E85329;}
	.st10{fill:#ED7623;}
	.st11{fill:#F39323;}
	.st12{fill:#F9B21C;}
	.st13{fill:#FFD300;}
	.st14{fill:#F4E621;}
	.st15{fill:#DDDC25;}
	.st16{fill:#B8CE3A;}
	.st17{fill:#8DBF44;}
	.st18{fill:#65B349;}
	.st19{fill:#24A74B;}
	.st20{fill:#12A34F;}
	.st21{fill:#13A568;}
	.st22{fill:#18A985;}
	.st23{fill:#00AB9E;}
	.st24{fill:#00AAB5;}
	.st25{fill:#00ACD6;}
	.st26{fill:#16A9E0;}
	.st27{fill:#2197D4;}
	.st28{fill:#1A82C5;}
	.st29{fill:#0B74B7;}
	.st30{fill:#185FA9;}
	.st31{fill:#0C4B98;}
	.st32{fill:#2A3888;}
	.st33{fill:#523289;}
	.st34{fill:#713088;}
	.st35{fill:#8D2F87;}
	.st36{fill:#C32384;}
	.st37{fill:#DF1A83;}
	.st38{fill:#E50F7F;}
	.st39{fill:#E5116E;}
	.st40{fill:#E5135D;}
	.st41{fill:#E5184E;}
	.st42{fill:#E41C3B;}
	.st43{fill:#E42029;}
	.st44{fill:#999999;}
	.st45{fill:url(#SVGID_6_);}
	.st46{fill:none;stroke:#CCCCCC;stroke-width:3;stroke-miterlimit:10;}
	.st47{fill:none;stroke:#CCCCCC;stroke-miterlimit:10;}
	.st48{fill:none;stroke:#CCCCCC;stroke-width:2;stroke-miterlimit:10;}
	.st49{fill:none;stroke:#CCCCCC;stroke-width:1.5;stroke-miterlimit:10;}
	.st50{filter:url(#Adobe_OpacityMaskFilter_2_);}
	.st51{mask:url(#SVGID_7_);}
	.st52{fill:url(#SVGID_8_);}
	.st53{fill:#FFFFFF;stroke:#000000;stroke-miterlimit:10;}
</style>
<g>
	<path class="st5" d="M18.6,43.2v29.8c0,10.8,4.4,12.9,14,12.9v1.4H1.7v-1.4c8.3,0,11.1-5.2,11.1-13V12.9c0-7-2.5-9.9-11.4-9.9
		L1.3,1.4h31.3v1.4c-9.4,0-13.7,2-14,12.1v26.9h4.5L56,7.9C54.7,4.5,51.6,3,45.2,3l-0.1-1.5h31.3v1.4c0,0-9.9,0-18.6,9.2L28.1,43.3
		L69.3,83l9.4,2.8v1.4H53.1v-1.4c4.5,0,6.2-1,7.5-2.8C52.6,75.2,25.2,49.2,18.6,43.2z"/>
	<path class="st5" d="M111.9,1.4c17,0,32.6,3.4,32.6,21.5c0,9.7-3.6,20.4-19.5,23.5c2.2,6.1,15.9,36.5,41.6,53l-0.3,1
		c-31.3-12.8-46.8-47.6-48.7-53.1l-13.5,0.1v36.3l15.5,1.7v1.7H86.8v-1.3c8.8,0,10.8-3.3,10.8-10.1V12.1c0-5-2-9.4-10.8-9.4V1.4
		H111.9z M104.1,45h10.1c12.2,0,22.9-3.8,22.9-21.4c0-14.3-9.9-18.9-24.8-18.9h-8.2V45z"/>
	<path class="st5" d="M178.9,75.2c0.2,9.7,6.2,10.8,11.1,10.8v1.2h-28.2V86c4.8,0,11.4-1.2,11.4-11.6V14.1
		c0-10.4-6.6-11.6-11.4-11.6V1.3H190v1.2c-5,0-11.1,1.2-11.1,11.6V75.2z"/>
	<path class="st5" d="M254.7,5.8L254,30.5h-1.5c0,0,4.1-26.9-22.8-26.9c-9.5,0-21.9,4.9-21.9,16.5c0,25.5,52.5,13.4,52.5,43.4
		c0,22.9-21.3,25.1-29.8,25.1c-19.9,0-29.1-10.7-29.1-10.7l0.3-25.4h1.4c0.9,16.2,3.2,33.5,27.5,33.5c9.6,0,23.3-4.6,23.3-20.1
		c0-26.6-51.9-12.2-51.9-43.9c0-20.7,24.1-21.5,28.8-21.5C242.8,0.5,254.7,5.8,254.7,5.8z"/>
	<path class="st5" d="M334.3,1.4v29.1H333c0-17.4-1.5-25.4-13.3-25.4h-15.8c0,0,0,71.7,0,78.1l15.9,2.4v1.5h-37.4v-1.3l15-2.6V5.1
		c0,0-6.3,0-14.3,0c-10.4,0-14.2,7.6-14.2,25.3h-1.1v-29H334.3z"/>
	<path class="st5" d="M393.6,1.4v1.2c0,0-17.4,0.4-17.4,6.6l25.5,69.2c1.5,4.3,4.3,7,11.2,7v1.7h-25.6v-1.7c6.8,0,9.7-1.2,7.7-6.8
		l-8.1-22.2h-32.4l-5.2,13.4c-5.2,13.3-3.7,15.6,6.1,15.6v1.7h-25.6v-1.7c7.3,0,10-2.3,14.8-14.1l24.5-62.1c0-6.5-16.8-6.4-16.8-6.4
		V1.4H393.6z M356.6,51.2H385l-13.7-39L356.6,51.2z"/>
	<path class="st5" d="M439.2,84.1h26.5c11.8,0,16.7-4.9,16.7-22.6h1.1v25.7h-61.8V86c4.8,0,11.4-1.2,11.4-11.6V14.1
		c0-10.4-6.6-11.6-11.4-11.6V1.3h28.7v1.2c-5,0-11.1,1.2-11.1,11.6V84.1z"/>
	<path class="st5" d="M512.7,84.1h26.5c11.8,0,16.7-4.9,16.7-22.6h1.1v25.7h-61.8V86c4.8,0,11.4-1.2,11.4-11.6V14.1
		c0-10.4-6.6-11.6-11.4-11.6V1.3h28.7v1.2c-5,0-11.1,1.2-11.1,11.6V84.1z"/>
	<path class="st5" d="M574.9,77.8c3.4,0,5.5,3.1,5.5,6.3c0,9.8-12.8,19.3-12.8,19.3l-0.4-0.5c0,0,6.9-6.1,6.9-11.7
		c0-3.5-4.4-3.7-4.4-7.8C569.6,80.4,571.7,77.8,574.9,77.8z"/>
	<path class="st5" d="M70.5,137.8l-11.4-2.4v-1.2h23.2v1.2c-5,0-7.1,2.2-8.9,6.8L41,222.5h-0.8L8.8,142c-2.1-5.2-3.9-6.6-8.8-6.6
		v-1.2h24.6v1.2l-10.4,2.2l27.5,72.9L70.5,137.8z"/>
	<path class="st5" d="M128,175.1c8.7,0,8.8-7.5,8.8-14.7h1.5l0.4,33h-1.5c0-4.6,0.3-14-9.3-14h-26.8l0.2,38.5
		c18.4,0,29.1-1,35.8-2.9c8.4-2.5,11.6-6.9,13.5-10.6l0.8,0.3c-0.2,1.6-1.9,15.7-18.6,15.7c-15.3,0-46.1-0.4-46.1-0.4v-1.4
		c5.4,0,8.5-3.9,8.5-9.3l0.1-62.2c0-6.3-2.4-11.4-8.6-11.4v-1.4h60.2l0.3,24.5h-1.4c0-10.7-0.8-20.7-12.4-20.7
		c-8.1,0-32.2-0.1-32.2-0.1v37.2H128z"/>
	<path class="st5" d="M186.7,134.2c17,0,32.6,3.4,32.6,21.5c0,9.7-3.6,20.4-19.5,23.5c2.2,6.1,15.9,36.5,41.6,53l-0.3,1
		c-31.3-12.8-46.8-47.6-48.7-53.1l-13.5,0.1v36.3l15.5,1.7v1.7h-32.8v-1.3c8.8,0,10.8-3.3,10.8-10.1v-63.7c0-5-2-9.4-10.8-9.4v-1.3
		H186.7z M178.9,177.8H189c12.2,0,22.9-3.8,22.9-21.4c0-14.3-9.9-18.9-24.8-18.9h-8.2V177.8z"/>
	<path class="st5" d="M299.1,134.2v29.1h-1.3c0-17.4-1.5-25.4-13.3-25.4h-15.8c0,0,0,71.7,0,78.1l15.9,2.4v1.5h-37.4v-1.3l15-2.6
		v-78.1c0,0-6.3,0-14.3,0c-10.4,0-14.2,7.6-14.2,25.3h-1.1v-29H299.1z"/>
	<path class="st5" d="M325.5,208c0.2,9.7,6.2,10.8,11.1,10.8v1.2h-28.2v-1.2c4.8,0,11.4-1.2,11.4-11.6v-60.4
		c0-10.4-6.6-11.6-11.4-11.6v-1.2h28.2v1.2c-5,0-11.1,1.2-11.1,11.6V208z"/>
	<path class="st5" d="M361.8,176v29.8c0,10.8,4.4,12.9,14,12.9v1.4h-30.8v-1.4c8.3,0,11.1-5.2,11.1-13v-59.9c0-7-2.5-9.9-11.4-9.9
		l-0.1-1.5h31.3v1.4c-9.4,0-13.7,2-14,12.1v26.9h4.5l32.9-34c-1.3-3.4-4.5-4.9-10.8-4.9l-0.1-1.5h31.3v1.4c0,0-9.9,0-18.6,9.2
		l-29.6,31.3l41.2,39.7l9.4,2.8v1.4h-25.6v-1.4c4.5,0,6.2-1,7.5-2.8C395.8,208,368.3,182,361.8,176z"/>
	<path class="st5" d="M489.7,134.2v1.2c0,0-17.4,0.4-17.4,6.6l25.5,69.2c1.5,4.3,4.3,7,11.2,7v1.7h-25.6v-1.7c6.8,0,9.7-1.2,7.7-6.8
		l-8.1-22.2h-32.4l-5.2,13.4c-5.2,13.3-3.7,15.6,6.1,15.6v1.7H426v-1.7c7.3,0,10-2.3,14.8-14.1l24.5-62.1c0-6.5-16.8-6.4-16.8-6.4
		v-1.4H489.7z M452.8,184h28.3l-13.7-39L452.8,184z"/>
	<path class="st5" d="M535.3,216.9h26.5c11.8,0,16.7-4.9,16.7-22.6h1.1V220h-61.8v-1.2c4.8,0,11.4-1.2,11.4-11.6v-60.4
		c0-10.4-6.6-11.6-11.4-11.6v-1.2h28.7v1.2c-5,0-11.1,1.2-11.1,11.6V216.9z"/>
	<path class="st5" d="M65.1,267v1.2c0,0-17.4,0.4-17.4,6.6l25.5,69.2c1.5,4.3,4.3,7,11.2,7v1.7H58.7v-1.7c6.8,0,9.7-1.2,7.7-6.8
		l-8.1-22.2H26l-5.2,13.4c-5.2,13.3-3.7,15.6,6.1,15.6v1.7H1.3v-1.7c7.3,0,10-2.3,14.8-14.1l24.5-62.1c0-6.5-16.8-6.4-16.8-6.4V267
		H65.1z M28.1,316.8h28.3l-13.7-39L28.1,316.8z"/>
	<path class="st5" d="M158.9,272.8l0.3,27.8h-2.1c0-9.8,3.7-31.5-26.7-31.5c-11.1,0-35,8.8-35,36.1c0,33.5,19.3,44.3,38.1,44.3
		c20.9,0,29-11.3,29-11.3l1,1c0,0-10.9,14.8-31.7,14.8c-21.7,0-43.8-13.6-43.8-44.1c0-33.6,25-42.9,43.7-42.9
		C148.3,266.8,158.9,272.8,158.9,272.8z"/>
	<path class="st5" d="M242.8,272.8l0.3,27.8h-2.1c0-9.8,3.7-31.5-26.7-31.5c-11.1,0-35,8.8-35,36.1c0,33.5,19.3,44.3,38.1,44.3
		c20.9,0,29-11.3,29-11.3l1,1c0,0-10.9,14.8-31.7,14.8c-21.7,0-43.8-13.6-43.8-44.1c0-33.6,25-42.9,43.7-42.9
		C232.3,266.8,242.8,272.8,242.8,272.8z"/>
	<path class="st5" d="M296.3,307.9c8.7,0,8.8-7.5,8.8-14.7h1.5l0.4,33h-1.5c0-4.6,0.3-14-9.3-14h-26.8l0.2,38.5
		c18.4,0,29.1-1,35.8-2.9c8.4-2.5,11.6-6.9,13.5-10.6l0.8,0.3c-0.2,1.6-1.9,15.7-18.6,15.7c-15.3,0-46.1-0.4-46.1-0.4v-1.4
		c5.5,0,8.5-3.9,8.5-9.3l0.1-62.2c0-6.3-2.4-11.4-8.6-11.4V267h60.2l0.3,24.5H314c0-10.7-0.8-20.7-12.4-20.7
		c-8.1,0-32.2-0.1-32.2-0.1v37.2H296.3z"/>
	<path class="st5" d="M399.8,280.2c0-7.1-3.5-11.8-16.7-11.8V267h31v1.4c-9.5,0-10,5.9-10,11.8v75.3h-0.3l-60.1-78.5v61.5
		c0,10.8,5.9,12.9,15.5,12.9v1.4h-30.8v-1.4c8.3,0,11.1-5.2,11.1-13v-59.9c0-7-2.5-9.9-11.4-9.9l-0.1-1.5h16l55.9,73.7V280.2z"/>
	<path class="st5" d="M488.1,267v29.1h-1.3c0-17.4-1.5-25.4-13.3-25.4h-15.8c0,0,0,71.7,0,78.1l15.9,2.4v1.5h-37.4v-1.3l15-2.6
		v-78.1c0,0-6.3,0-14.3,0c-10.4,0-14.2,7.6-14.2,25.3h-1.1v-29H488.1z"/>
</g>
</svg>
